<?xml version="1.0" encoding="UTF-8"?>
<svg width="16px" height="16px" viewBox="0 0 30 30" version="1.1" xmlns="http://www.w3.org/2000/svg" xmlns:xlink="http://www.w3.org/1999/xlink">
    <!-- Generator: Sketch 49.3 (51167) - http://www.bohemiancoding.com/sketch -->
    <title>Product_icon_dark Copy@1x</title>
    <desc>Created with Sketch.</desc>
    <defs>
        <path d="M0.0570904355,4.41240771 C0.0570904355,6.84422519 2.03610949,8.81552892 4.47728259,8.81552892 C6.91845569,8.81552892 8.89740513,6.84422519 8.89740513,4.41240771 C8.89740513,1.98065954 6.91845569,0.0093558096 4.47728259,0.0093558096 C2.03610949,0.0093558096 0.0570904355,1.98065954 0.0570904355,4.41240771 Z" id="path-1"></path>
        <path d="M6.35792508,-8.66341039 C6.25481419,-8.5670802 6.19640092,-8.43270305 6.19640092,-8.2920194 L6.19640092,-3.04569719 C9.58631959,-2.2634129 12.1129195,0.76364197 12.1129195,4.37838029 C12.1129195,7.99318791 9.58631959,11.0202428 6.19640092,11.8024578 L6.19640092,17.1525255 C6.19640092,17.4338235 6.42545889,17.6618281 6.70805655,17.6618281 C6.84945981,17.6618281 6.9844578,17.6036834 7.08123305,17.5010467 L18.1789871,5.73074524 C18.8683889,4.99953674 18.8683889,3.86096937 18.1789871,3.12976087 L7.08123305,-8.64054063 C6.98048932,-8.74740477 6.84444699,-8.80139125 6.70798692,-8.80139125 C6.58245759,-8.80139125 6.45664976,-8.75565174 6.35792508,-8.66341039 Z" id="path-3"></path>
        <path d="M1.8676579,-8.64060993 L-9.23009616,3.12969157 C-9.91949798,3.86090006 -9.91949798,4.99946744 -9.23009616,5.73067594 L1.8676579,17.5010467 C1.96443315,17.6036141 2.09943114,17.6617588 2.2408344,17.6617588 C2.52343206,17.6617588 2.75255965,17.4337542 2.75255965,17.1524562 L2.75255965,11.8023885 C-0.637428637,11.0201735 -3.16402852,7.99311861 -3.16402852,4.37831099 C-3.16402852,0.763503366 -0.637428637,-2.2634129 2.75255965,-3.04576649 L2.75255965,-8.2920194 C2.75255965,-8.43277236 2.69407676,-8.5671495 2.59096587,-8.66347969 C2.49224119,-8.75572104 2.36643336,-8.80139125 2.24090403,-8.80139125 C2.10444396,-8.80139125 1.96840163,-8.74740477 1.8676579,-8.64060993 Z" id="path-5"></path>
    </defs>
    <g id="Product_icon_dark-Copy" stroke="none" stroke-width="1" fill="none" fill-rule="evenodd">
        <g id="Group" transform="translate(10.500000, 10.500000)">
            <mask id="mask-2" fill="white">
                <use xlink:href="#path-1"></use>
            </mask>
            <use id="Clip-2" fill="#000000" xlink:href="#path-1"></use>
            <mask id="mask-4" fill="white">
                <use xlink:href="#path-3"></use>
            </mask>
            <use id="Clip-5" fill="#000000" xlink:href="#path-3"></use>
            <mask id="mask-6" fill="white">
                <use xlink:href="#path-5"></use>
            </mask>
            <use id="Clip-8" fill="#000000" xlink:href="#path-5"></use>
        </g>
    </g>
</svg>