<svg width="16" height="16" xmlns="http://www.w3.org/2000/svg">
  <path fill="#828895" d="M5.564 7.986a2.434 2.434 0 1 0 4.862-.005 2.434 2.434 0 0 0-4.862.005z"/>
  <path fill="#3193f1" d="M9.036.786a.297.297 0 0 0-.09.202V3.88a4.207 4.207 0 0 1 0 8.18v2.946a.282.282 0 0 0 .49.192l6.114-6.482a1.053 1.053 0 0 0 0-1.438L9.436.802a.282.282 0 0 0-.4-.01V.785zm-2.47.016L.45 7.283a1.044 1.044 0 0 0 0 1.433l6.114 6.476a.282.282 0 0 0 .485-.191v-2.946a4.207 4.207 0 0 1 0-8.18V.988a.282.282 0 0 0-.282-.277.282.282 0 0 0-.203.085v.006z"/>
</svg>